<?xml version="1.0" standalone="no"?>
<!DOCTYPE svg PUBLIC "-//W3C//DTD SVG 1.1//EN" "http://www.w3.org/Graphics/SVG/1.1/DTD/svg11.dtd">
<svg xmlns="http://www.w3.org/2000/svg" xmlns:xlink="http://www.w3.org/1999/xlink" width="375" zoomAndPan="magnify" viewBox="0 0 375 374.999991" height="375" preserveAspectRatio="xMidYMid meet" version="1.0"><defs><g/><clipPath id="95f57effa9"><rect x="0" width="119" y="0" height="287"/></clipPath><clipPath id="af10fc3c7a"><path d="M 63 35 L 234 35 L 234 253 L 63 253 Z M 63 35 " clip-rule="nonzero"/></clipPath><clipPath id="cac70fdf64"><path d="M 63.183594 62.917969 L 102.019531 35.894531 L 233.917969 225.460938 L 195.082031 252.484375 Z M 63.183594 62.917969 " clip-rule="nonzero"/></clipPath><clipPath id="18a1f957c8"><path d="M 0.121094 0.761719 L 171 0.761719 L 171 217.71875 L 0.121094 217.71875 Z M 0.121094 0.761719 " clip-rule="nonzero"/></clipPath><clipPath id="abc7213183"><path d="M 0.183594 27.917969 L 39.019531 0.894531 L 170.917969 190.460938 L 132.082031 217.484375 Z M 0.183594 27.917969 " clip-rule="nonzero"/></clipPath><clipPath id="6c48c13b20"><rect x="0" width="171" y="0" height="218"/></clipPath><clipPath id="16b806219e"><rect x="0" width="128" y="0" height="286"/></clipPath><clipPath id="72b15ec778"><path d="M 219.355469 144.191406 L 224.5 144.191406 L 224.5 206.023438 L 219.355469 206.023438 Z M 219.355469 144.191406 " clip-rule="nonzero"/></clipPath><clipPath id="e571848378"><path d="M 0.355469 0.191406 L 5.5 0.191406 L 5.5 62.023438 L 0.355469 62.023438 Z M 0.355469 0.191406 " clip-rule="nonzero"/></clipPath><clipPath id="03e5c1c43d"><rect x="0" width="6" y="0" height="63"/></clipPath><clipPath id="ff5cf2aa01"><path d="M 193.800781 119.097656 L 198.644531 119.097656 L 198.644531 191.859375 L 193.800781 191.859375 Z M 193.800781 119.097656 " clip-rule="nonzero"/></clipPath><clipPath id="106a4e046e"><path d="M 0.800781 0.0976562 L 5.644531 0.0976562 L 5.644531 72.859375 L 0.800781 72.859375 Z M 0.800781 0.0976562 " clip-rule="nonzero"/></clipPath><clipPath id="de0aa4a848"><rect x="0" width="6" y="0" height="73"/></clipPath><clipPath id="cc42772e2d"><path d="M 192.347656 117.742188 L 197.191406 117.742188 L 197.191406 168.03125 L 192.347656 168.03125 Z M 192.347656 117.742188 " clip-rule="nonzero"/></clipPath><clipPath id="90d425f041"><path d="M 0.347656 0.742188 L 5.191406 0.742188 L 5.191406 51.03125 L 0.347656 51.03125 Z M 0.347656 0.742188 " clip-rule="nonzero"/></clipPath><clipPath id="0b1fba99aa"><rect x="0" width="6" y="0" height="52"/></clipPath><clipPath id="6eccbad3c6"><rect x="0" width="226" y="0" height="52"/></clipPath><clipPath id="730f05d078"><rect x="0" width="103" y="0" height="28"/></clipPath></defs><rect x="-37.5" width="450" fill="#ffffff" y="-37.499999" height="449.999989" fill-opacity="1"/><rect x="-37.5" width="450" fill="#ffffff" y="-37.499999" height="449.999989" fill-opacity="1"/><g transform="matrix(1, 0, 0, 1, 155, 11)"><g clip-path="url(#95f57effa9)"><g fill="#000000" fill-opacity="1"><g transform="translate(1.03063, 185.862661)"><g><path d="M 5.5625 0 C 8.632812 -1.0625 11.046875 -2.203125 12.796875 -3.421875 C 14.546875 -4.640625 15.789062 -6.410156 16.53125 -8.734375 C 17.269531 -11.066406 17.640625 -14.40625 17.640625 -18.75 L 17.640625 -81.390625 C 17.640625 -85.734375 17.269531 -89.066406 16.53125 -91.390625 C 15.789062 -93.722656 14.546875 -95.523438 12.796875 -96.796875 C 11.046875 -98.066406 8.632812 -99.179688 5.5625 -100.140625 L 55 -100.140625 C 51.925781 -99.179688 49.488281 -98.066406 47.6875 -96.796875 C 45.882812 -95.523438 44.613281 -93.722656 43.875 -91.390625 C 43.132812 -89.066406 42.765625 -85.734375 42.765625 -81.390625 L 42.765625 -18.59375 L 96.328125 -18.59375 C 102.367188 -18.59375 106.6875 -19.707031 109.28125 -21.9375 C 111.875 -24.164062 113.804688 -27.820312 115.078125 -32.90625 L 115.078125 0 Z M 5.5625 0 "/></g></g></g></g></g><g clip-path="url(#af10fc3c7a)"><g clip-path="url(#cac70fdf64)"><g transform="matrix(1, 0, 0, 1, 63, 35)"><g clip-path="url(#6c48c13b20)"><g clip-path="url(#18a1f957c8)"><g clip-path="url(#abc7213183)"><path fill="#ffffff" d="M 0.183594 27.917969 L 39.019531 0.894531 L 170.964844 190.527344 L 132.128906 217.550781 Z M 0.183594 27.917969 " fill-opacity="1" fill-rule="nonzero"/></g></g></g></g></g></g><g transform="matrix(1, 0, 0, 1, 104, 32)"><g clip-path="url(#16b806219e)"><g fill="#000000" fill-opacity="1"><g transform="translate(0.478774, 185.240684)"><g><path d="M 7.953125 -50.0625 C 7.953125 -67.019531 13.035156 -79.84375 23.203125 -88.53125 C 33.378906 -97.226562 48.21875 -101.578125 67.71875 -101.578125 C 78.207031 -101.578125 86.816406 -101.046875 93.546875 -99.984375 C 100.273438 -98.921875 105.28125 -97.859375 108.5625 -96.796875 C 111.851562 -95.742188 113.5 -95.21875 113.5 -95.21875 L 113.5 -69.625 C 113.5 -69.625 112.992188 -70.207031 111.984375 -71.375 C 110.972656 -72.539062 109.273438 -73.914062 106.890625 -75.5 C 104.503906 -77.09375 101.195312 -78.523438 96.96875 -79.796875 C 93.78125 -80.742188 90.039062 -81.535156 85.75 -82.171875 C 81.457031 -82.804688 76.503906 -83.125 70.890625 -83.125 C 58.390625 -83.125 49.007812 -80.238281 42.75 -74.46875 C 36.5 -68.695312 33.375 -60.5625 33.375 -50.0625 C 33.375 -39.570312 36.601562 -31.441406 43.0625 -25.671875 C 49.53125 -19.898438 59.335938 -17.015625 72.484375 -17.015625 C 76.191406 -17.015625 79.316406 -17.195312 81.859375 -17.5625 C 84.398438 -17.9375 86.519531 -18.332031 88.21875 -18.75 L 88.21875 -38.46875 C 88.21875 -42.8125 87.6875 -46.148438 86.625 -48.484375 C 85.570312 -50.816406 83.664062 -52.617188 80.90625 -53.890625 C 78.15625 -55.160156 74.179688 -56.269531 68.984375 -57.21875 L 113.5 -57.21875 L 113.5 -4.921875 C 113.5 -4.921875 111.988281 -4.390625 108.96875 -3.328125 C 105.945312 -2.273438 101.203125 -1.21875 94.734375 -0.15625 C 88.273438 0.90625 79.796875 1.4375 69.296875 1.4375 C 49.273438 1.4375 34.046875 -2.90625 23.609375 -11.59375 C 13.171875 -20.289062 7.953125 -33.113281 7.953125 -50.0625 Z M 7.953125 -50.0625 "/></g></g></g></g></g><g clip-path="url(#72b15ec778)"><g transform="matrix(1, 0, 0, 1, 219, 144)"><g clip-path="url(#03e5c1c43d)"><g clip-path="url(#e571848378)"><path fill="#ffffff" d="M 0.355469 0.191406 L 5.5 0.191406 L 5.5 62.019531 L 0.355469 62.019531 Z M 0.355469 0.191406 " fill-opacity="1" fill-rule="nonzero"/></g></g></g></g><g clip-path="url(#ff5cf2aa01)"><g transform="matrix(1, 0, 0, 1, 193, 119)"><g clip-path="url(#de0aa4a848)"><g clip-path="url(#106a4e046e)"><path fill="#ffffff" d="M 0.800781 0.0976562 L 5.644531 0.0976562 L 5.644531 72.855469 L 0.800781 72.855469 Z M 0.800781 0.0976562 " fill-opacity="1" fill-rule="nonzero"/></g></g></g></g><g clip-path="url(#cc42772e2d)"><g transform="matrix(1, 0, 0, 1, 192, 117)"><g clip-path="url(#0b1fba99aa)"><g clip-path="url(#90d425f041)"><path fill="#ffffff" d="M 0.347656 0.742188 L 5.191406 0.742188 L 5.191406 51.023438 L 0.347656 51.023438 Z M 0.347656 0.742188 " fill-opacity="1" fill-rule="nonzero"/></g></g></g></g><g transform="matrix(1, 0, 0, 1, 75, 227)"><g clip-path="url(#6eccbad3c6)"><g fill="#000000" fill-opacity="1"><g transform="translate(0.928649, 39.421247)"><g><path d="M 14.109375 0.390625 C 11.859375 0.390625 9.875 -0.125 8.15625 -1.15625 C 6.4375 -2.1875 5.09375 -3.734375 4.125 -5.796875 C 3.164062 -7.867188 2.6875 -10.410156 2.6875 -13.421875 C 2.6875 -16.429688 3.203125 -18.96875 4.234375 -21.03125 C 5.265625 -23.101562 6.695312 -24.648438 8.53125 -25.671875 C 10.375 -26.703125 12.492188 -27.21875 14.890625 -27.21875 C 17.453125 -27.21875 19.5625 -26.753906 21.21875 -25.828125 C 22.875 -24.910156 24.039062 -23.535156 24.71875 -21.703125 L 22.671875 -20.484375 L 22.21875 -20.484375 C 21.519531 -21.878906 20.578125 -22.878906 19.390625 -23.484375 C 18.203125 -24.085938 16.703125 -24.390625 14.890625 -24.390625 C 9.003906 -24.390625 6.0625 -20.734375 6.0625 -13.421875 C 6.0625 -9.609375 6.800781 -6.828125 8.28125 -5.078125 C 9.757812 -3.328125 11.832031 -2.453125 14.5 -2.453125 C 16.945312 -2.453125 18.78125 -3.007812 20 -4.125 C 21.21875 -5.238281 21.828125 -7 21.828125 -9.40625 L 21.828125 -11.765625 L 14.1875 -11.765625 L 14.1875 -14.296875 L 24.890625 -14.296875 L 24.890625 0 L 21.96875 0 L 21.96875 -3.59375 L 21.59375 -3.6875 C 20.875 -2.300781 19.878906 -1.273438 18.609375 -0.609375 C 17.347656 0.0546875 15.847656 0.390625 14.109375 0.390625 Z M 14.109375 0.390625 "/></g></g></g><g fill="#000000" fill-opacity="1"><g transform="translate(28.825008, 39.421247)"><g><path d="M 14.71875 0.390625 C 12.394531 0.390625 10.328125 -0.109375 8.515625 -1.109375 C 6.703125 -2.117188 5.273438 -3.65625 4.234375 -5.71875 C 3.203125 -7.78125 2.6875 -10.347656 2.6875 -13.421875 C 2.6875 -16.492188 3.203125 -19.0625 4.234375 -21.125 C 5.273438 -23.1875 6.703125 -24.71875 8.515625 -25.71875 C 10.328125 -26.71875 12.394531 -27.21875 14.71875 -27.21875 C 17.039062 -27.21875 19.109375 -26.71875 20.921875 -25.71875 C 22.734375 -24.71875 24.160156 -23.1875 25.203125 -21.125 C 26.242188 -19.0625 26.765625 -16.492188 26.765625 -13.421875 C 26.765625 -10.347656 26.242188 -7.78125 25.203125 -5.71875 C 24.160156 -3.65625 22.734375 -2.117188 20.921875 -1.109375 C 19.109375 -0.109375 17.039062 0.390625 14.71875 0.390625 Z M 14.71875 -2.53125 C 17.507812 -2.53125 19.648438 -3.398438 21.140625 -5.140625 C 22.640625 -6.890625 23.390625 -9.648438 23.390625 -13.421875 C 23.390625 -17.191406 22.640625 -19.945312 21.140625 -21.6875 C 19.648438 -23.425781 17.507812 -24.296875 14.71875 -24.296875 C 8.945312 -24.296875 6.0625 -20.671875 6.0625 -13.421875 C 6.0625 -6.160156 8.945312 -2.53125 14.71875 -2.53125 Z M 14.71875 -2.53125 "/></g></g></g><g fill="#000000" fill-opacity="1"><g transform="translate(58.263009, 39.421247)"><g><path d="M 14.71875 0.390625 C 12.394531 0.390625 10.328125 -0.109375 8.515625 -1.109375 C 6.703125 -2.117188 5.273438 -3.65625 4.234375 -5.71875 C 3.203125 -7.78125 2.6875 -10.347656 2.6875 -13.421875 C 2.6875 -16.492188 3.203125 -19.0625 4.234375 -21.125 C 5.273438 -23.1875 6.703125 -24.71875 8.515625 -25.71875 C 10.328125 -26.71875 12.394531 -27.21875 14.71875 -27.21875 C 17.039062 -27.21875 19.109375 -26.71875 20.921875 -25.71875 C 22.734375 -24.71875 24.160156 -23.1875 25.203125 -21.125 C 26.242188 -19.0625 26.765625 -16.492188 26.765625 -13.421875 C 26.765625 -10.347656 26.242188 -7.78125 25.203125 -5.71875 C 24.160156 -3.65625 22.734375 -2.117188 20.921875 -1.109375 C 19.109375 -0.109375 17.039062 0.390625 14.71875 0.390625 Z M 14.71875 -2.53125 C 17.507812 -2.53125 19.648438 -3.398438 21.140625 -5.140625 C 22.640625 -6.890625 23.390625 -9.648438 23.390625 -13.421875 C 23.390625 -17.191406 22.640625 -19.945312 21.140625 -21.6875 C 19.648438 -23.425781 17.507812 -24.296875 14.71875 -24.296875 C 8.945312 -24.296875 6.0625 -20.671875 6.0625 -13.421875 C 6.0625 -6.160156 8.945312 -2.53125 14.71875 -2.53125 Z M 14.71875 -2.53125 "/></g></g></g><g fill="#000000" fill-opacity="1"><g transform="translate(87.70101, 39.421247)"><g><path d="M 12.734375 -26.84375 C 15.453125 -26.84375 17.785156 -26.351562 19.734375 -25.375 C 21.691406 -24.40625 23.195312 -22.921875 24.25 -20.921875 C 25.3125 -18.929688 25.84375 -16.429688 25.84375 -13.421875 C 25.84375 -10.410156 25.3125 -7.90625 24.25 -5.90625 C 23.195312 -3.914062 21.691406 -2.429688 19.734375 -1.453125 C 17.785156 -0.484375 15.453125 0 12.734375 0 L 4.0625 0 L 4.0625 -26.84375 Z M 12.421875 -2.6875 C 14.660156 -2.6875 16.515625 -3.03125 17.984375 -3.71875 C 19.453125 -4.414062 20.566406 -5.554688 21.328125 -7.140625 C 22.085938 -8.722656 22.46875 -10.816406 22.46875 -13.421875 C 22.46875 -16.035156 22.085938 -18.128906 21.328125 -19.703125 C 20.566406 -21.273438 19.453125 -22.410156 17.984375 -23.109375 C 16.515625 -23.804688 14.660156 -24.15625 12.421875 -24.15625 L 7.21875 -24.15625 L 7.21875 -2.6875 Z M 12.421875 -2.6875 "/></g></g></g><g fill="#000000" fill-opacity="1"><g transform="translate(116.221368, 39.421247)"><g/></g></g><g fill="#000000" fill-opacity="1"><g transform="translate(125.434508, 39.421247)"><g><path d="M 7.21875 -26.84375 L 7.21875 -2.609375 L 20.140625 -2.609375 L 20.140625 0 L 4.0625 0 L 4.0625 -26.84375 Z M 7.21875 -26.84375 "/></g></g></g><g fill="#000000" fill-opacity="1"><g transform="translate(146.705491, 39.421247)"><g><path d="M 13.84375 0.390625 C 10.550781 0.390625 8.0625 -0.441406 6.375 -2.109375 C 4.6875 -3.785156 3.84375 -6.265625 3.84375 -9.546875 L 3.84375 -26.84375 L 6.96875 -26.84375 L 6.96875 -9.578125 C 6.96875 -7.234375 7.535156 -5.472656 8.671875 -4.296875 C 9.804688 -3.117188 11.53125 -2.53125 13.84375 -2.53125 C 18.414062 -2.53125 20.703125 -4.878906 20.703125 -9.578125 L 20.703125 -26.84375 L 23.84375 -26.84375 L 23.84375 -9.546875 C 23.84375 -6.265625 23 -3.785156 21.3125 -2.109375 C 19.625 -0.441406 17.132812 0.390625 13.84375 0.390625 Z M 13.84375 0.390625 "/></g></g></g><g fill="#000000" fill-opacity="1"><g transform="translate(174.363273, 39.421247)"><g><path d="M 14.828125 0.390625 C 12.484375 0.390625 10.390625 -0.144531 8.546875 -1.21875 C 6.710938 -2.300781 5.273438 -3.878906 4.234375 -5.953125 C 3.203125 -8.023438 2.6875 -10.515625 2.6875 -13.421875 C 2.6875 -16.316406 3.203125 -18.800781 4.234375 -20.875 C 5.273438 -22.945312 6.710938 -24.519531 8.546875 -25.59375 C 10.390625 -26.675781 12.484375 -27.21875 14.828125 -27.21875 C 17.335938 -27.21875 19.425781 -26.742188 21.09375 -25.796875 C 22.757812 -24.847656 23.957031 -23.421875 24.6875 -21.515625 L 22.671875 -20.171875 L 22.21875 -20.171875 C 21.476562 -21.703125 20.519531 -22.785156 19.34375 -23.421875 C 18.164062 -24.066406 16.660156 -24.390625 14.828125 -24.390625 C 13.140625 -24.390625 11.640625 -24.015625 10.328125 -23.265625 C 9.023438 -22.515625 7.988281 -21.320312 7.21875 -19.6875 C 6.445312 -18.050781 6.0625 -15.960938 6.0625 -13.421875 C 6.0625 -10.867188 6.445312 -8.78125 7.21875 -7.15625 C 7.988281 -5.53125 9.023438 -4.335938 10.328125 -3.578125 C 11.640625 -2.828125 13.140625 -2.453125 14.828125 -2.453125 C 16.773438 -2.453125 18.363281 -2.890625 19.59375 -3.765625 C 20.832031 -4.640625 21.753906 -6.054688 22.359375 -8.015625 L 22.8125 -8.015625 L 24.921875 -6.96875 C 24.285156 -4.601562 23.109375 -2.785156 21.390625 -1.515625 C 19.671875 -0.242188 17.484375 0.390625 14.828125 0.390625 Z M 14.828125 0.390625 "/></g></g></g><g fill="#000000" fill-opacity="1"><g transform="translate(200.681287, 39.421247)"><g><path d="M 4.0625 0 L 4.0625 -26.84375 L 7.21875 -26.84375 L 7.21875 -15.109375 L 7.78125 -15.109375 L 18.796875 -26.84375 L 22.25 -26.84375 L 22.25 -26.375 L 10.625 -13.84375 L 23.171875 -0.453125 L 23.171875 0 L 19.546875 0 L 7.78125 -12.359375 L 7.21875 -12.359375 L 7.21875 0 Z M 4.0625 0 "/></g></g></g></g></g><g transform="matrix(1, 0, 0, 1, 145, 270)"><g clip-path="url(#730f05d078)"><g fill="#000000" fill-opacity="1"><g transform="translate(1.019723, 21.092162)"><g><path d="M 3.625 0 L 2.109375 0 L 2.109375 -13.9375 L 4.546875 -13.9375 L 8.765625 -2.140625 L 8.96875 -2.140625 L 13.1875 -13.9375 L 15.53125 -13.9375 L 15.53125 0 L 13.984375 0 L 13.984375 -11.375 L 13.75 -11.421875 L 9.625 0 L 7.984375 0 L 3.859375 -11.421875 L 3.625 -11.375 Z M 3.625 0 "/></g></g></g><g fill="#000000" fill-opacity="1"><g transform="translate(18.667338, 21.092162)"><g><path d="M 3.75 -6.578125 L 3.75 -1.359375 L 10.859375 -1.359375 L 10.859375 0 L 2.109375 0 L 2.109375 -13.9375 L 10.703125 -13.9375 L 10.703125 -12.59375 L 3.75 -12.59375 L 3.75 -7.921875 L 9.875 -7.921875 L 9.875 -6.578125 Z M 3.75 -6.578125 "/></g></g></g><g fill="#000000" fill-opacity="1"><g transform="translate(30.441949, 21.092162)"><g><path d="M 6.625 -13.9375 C 8.03125 -13.9375 9.238281 -13.679688 10.25 -13.171875 C 11.269531 -12.671875 12.050781 -11.898438 12.59375 -10.859375 C 13.144531 -9.828125 13.421875 -8.53125 13.421875 -6.96875 C 13.421875 -5.40625 13.144531 -4.101562 12.59375 -3.0625 C 12.050781 -2.03125 11.269531 -1.257812 10.25 -0.75 C 9.238281 -0.25 8.03125 0 6.625 0 L 2.109375 0 L 2.109375 -13.9375 Z M 6.453125 -1.390625 C 7.617188 -1.390625 8.582031 -1.570312 9.34375 -1.9375 C 10.101562 -2.300781 10.679688 -2.890625 11.078125 -3.703125 C 11.472656 -4.523438 11.671875 -5.613281 11.671875 -6.96875 C 11.671875 -8.332031 11.472656 -9.421875 11.078125 -10.234375 C 10.679688 -11.054688 10.101562 -11.644531 9.34375 -12 C 8.582031 -12.363281 7.617188 -12.546875 6.453125 -12.546875 L 3.75 -12.546875 L 3.75 -1.390625 Z M 6.453125 -1.390625 "/></g></g></g><g fill="#000000" fill-opacity="1"><g transform="translate(45.257934, 21.092162)"><g><path d="M 3.75 0 L 2.109375 0 L 2.109375 -13.9375 L 3.75 -13.9375 Z M 3.75 0 "/></g></g></g><g fill="#000000" fill-opacity="1"><g transform="translate(51.121407, 21.092162)"><g><path d="M 7.703125 0.203125 C 6.484375 0.203125 5.394531 -0.078125 4.4375 -0.640625 C 3.488281 -1.203125 2.742188 -2.019531 2.203125 -3.09375 C 1.660156 -4.175781 1.390625 -5.46875 1.390625 -6.96875 C 1.390625 -8.476562 1.660156 -9.769531 2.203125 -10.84375 C 2.742188 -11.925781 3.488281 -12.742188 4.4375 -13.296875 C 5.394531 -13.859375 6.484375 -14.140625 7.703125 -14.140625 C 9.003906 -14.140625 10.085938 -13.894531 10.953125 -13.40625 C 11.816406 -12.914062 12.441406 -12.171875 12.828125 -11.171875 L 11.78125 -10.484375 L 11.546875 -10.484375 C 11.160156 -11.273438 10.660156 -11.835938 10.046875 -12.171875 C 9.441406 -12.503906 8.660156 -12.671875 7.703125 -12.671875 C 6.828125 -12.671875 6.046875 -12.472656 5.359375 -12.078125 C 4.679688 -11.691406 4.140625 -11.070312 3.734375 -10.21875 C 3.335938 -9.375 3.140625 -8.289062 3.140625 -6.96875 C 3.140625 -5.644531 3.335938 -4.5625 3.734375 -3.71875 C 4.140625 -2.875 4.679688 -2.253906 5.359375 -1.859375 C 6.046875 -1.472656 6.828125 -1.28125 7.703125 -1.28125 C 8.710938 -1.28125 9.539062 -1.503906 10.1875 -1.953125 C 10.832031 -2.410156 11.304688 -3.148438 11.609375 -4.171875 L 11.859375 -4.171875 L 12.953125 -3.625 C 12.617188 -2.394531 12.003906 -1.445312 11.109375 -0.78125 C 10.222656 -0.125 9.085938 0.203125 7.703125 0.203125 Z M 7.703125 0.203125 "/></g></g></g><g fill="#000000" fill-opacity="1"><g transform="translate(64.793299, 21.092162)"><g><path d="M 3.75 0 L 2.109375 0 L 2.109375 -13.9375 L 3.75 -13.9375 Z M 3.75 0 "/></g></g></g><g fill="#000000" fill-opacity="1"><g transform="translate(70.656772, 21.092162)"><g><path d="M 3.703125 0 L 2.109375 0 L 2.109375 -13.9375 L 4.125 -13.9375 L 10.921875 -3.296875 L 11.15625 -3.328125 L 11.15625 -13.9375 L 12.75 -13.9375 L 12.75 0 L 11.03125 0 L 3.953125 -11.390625 L 3.703125 -11.359375 Z M 3.703125 0 "/></g></g></g><g fill="#000000" fill-opacity="1"><g transform="translate(85.520431, 21.092162)"><g><path d="M 3.75 -6.578125 L 3.75 -1.359375 L 10.859375 -1.359375 L 10.859375 0 L 2.109375 0 L 2.109375 -13.9375 L 10.703125 -13.9375 L 10.703125 -12.59375 L 3.75 -12.59375 L 3.75 -7.921875 L 9.875 -7.921875 L 9.875 -6.578125 Z M 3.75 -6.578125 "/></g></g></g><g fill="#000000" fill-opacity="1"><g transform="translate(97.297411, 21.092162)"><g/></g></g></g></g></svg>